#!OML:ASF F:\VICON\USERDATA\INSTALL\rory3\rory3.ASF
:FULLY-SPECIFIED
:DEGREES
785
root -14.8219 17.5802 16.0625 -177.321 24.0879 -177.346
lowerback 11.1861 0.415027 1.1608
upperback 0.149694 0.927571 2.12202
thorax -6.14416 0.49169 1.41849
lowerneck -19.4162 -6.55489 -11.6977
upperneck 34.0918 -5.6664 5.32126
head 15.9494 -2.56691 3.3812
rclavicle -7.7526e-015 2.8625e-014
rhumerus -37.3392 -13.85 -73.6028
rradius 29.2132
rwrist 4.22397
rhand -19.462 8.47797
rfingers 7.12502
rthumb 6.85922 -21.3909
lclavicle -7.7526e-015 2.8625e-014
lhumerus -31.888 8.19939 79.3939
lradius 36.8117
lwrist -1.34151
lhand -20.4837 25.2027
lfingers 7.12502
lthumb 5.87286 55.1013
rfemur -5.95569 -14.3612 22.5002
rtibia 33.4437
rfoot -19.4499 -21.2403
rtoes -9.95978
lfemur -11.0269 15.2049 -18.3
ltibia 36.6911
lfoot -17.7934 18.4006
ltoes -5.93934
786
root -14.8258 17.5733 16.0602 -177.657 22.6134 -177.917
lowerback 11.2635 0.319419 0.692684
upperback 0.0987121 0.730894 2.03758
thorax -6.2423 0.405379 1.62634
lowerneck -19.4417 -6.53554 -11.6377
upperneck 34.1748 -5.60408 5.26249
head 15.9845 -2.53111 3.3633
rclavicle -4.72114e-015 -1.43125e-014
rhumerus -37.5607 -14.087 -73.3851
rradius 29.2163
rwrist 4.18674
rhand -19.3678 8.16204
rfingers 7.12502
rthumb 6.9501 -21.7039
lclavicle -4.72114e-015 -1.43125e-014
lhumerus -31.8484 8.17649 79.4578
lradius 36.8215
lwrist -1.14822
lhand -20.3975 25.3503
lfingers 7.12502
lthumb 5.95603 55.2465
rfemur -6.15415 -14.7392 22.0117
rtibia 34.2874
rfoot -19.6526 -21.9616
rtoes -10.269
lfemur -10.4034 14.603 -18.8066
ltibia 35.4762
lfoot -17.9445 17.7847
ltoes -6.71379
787
root -14.8334 17.5617 16.0587 -177.883 21.125 -178.194
lowerback 11.3055 0.191912 0.533719
upperback 0.0927527 0.537837 1.99717
thorax -6.26841 0.31456 1.70555
lowerneck -19.4383 -6.51358 -11.4975
upperneck 34.2198 -5.56356 5.17305
head 15.9909 -2.49902 3.31235
rclavicle -3.926e-015 9.54166e-015
rhumerus -37.6665 -14.5216 -73.1586
rradius 29.1136
rwrist 4.37886
rhand -19.2761 7.97148
rfingers 7.12502
rthumb 7.0386 -21.8915
lclavicle -3.926e-015 9.54166e-015
lhumerus -31.7236 8.15804 79.4517
lradius 36.6908
lwrist -0.920572
lhand -20.2907 24.4537
lfingers 7.12502
lthumb 6.05915 54.347
rfemur -6.35918 -15.1435 21.8079
rtibia 35.1915
rfoot -19.8553 -22.6188
rtoes -9.94029
lfemur -9.81874 13.7814 -19.0198
ltibia 34.3317
lfoot -17.8275 17.3448
ltoes -8.16757
788
root -14.8501 17.5527 16.0566 -177.936 19.674 -178.396
lowerback 11.2516 0.0617014 0.475955
upperback 0.0120539 0.355757 2.00346
thorax -6.31894 0.226502 1.7754
lowerneck -19.2555 -6.51222 -11.5063
upperneck 34.2036 -5.54111 5.15468
head 15.9378 -2.48377 3.31468
rclavicle -2.93704e-014 1.66979e-014
rhumerus -37.7734 -14.9802 -72.8349
rradius 28.909
rwrist 4.7849
rhand -19.3994 8.01682
rfingers 7.12502
rthumb 6.91963 -21.8501
lclavicle -2.93704e-014 1.66979e-014
lhumerus -31.7769 8.26292 79.5317
lradius 36.6489
lwrist -0.902167
lhand -20.4309 23.8439
lfingers 7.12502
lthumb 5.9238 53.741
rfemur -6.7558 -15.6179 21.674
rtibia 36.1246
rfoot -19.7833 -23.278
rtoes -10.0051
lfemur -9.4277 12.7199 -19.2478
ltibia 33.2636
lfoot -17.7245 17.1081
ltoes -8.35689
789
root -14.8636 17.5492 16.0503 -178.088 18.1908 -178.858
lowerback 11.2027 -0.024566 0.12973
upperback -0.0711405 0.186234 1.94621
thorax -6.37529 0.151095 1.93949
lowerneck -19.3197 -6.507 -11.3836
upperneck 34.3719 -5.49217 5.05773
head 16.0218 -2.44668 3.27025
rclavicle 9.14409e-015 -1.59028e-015
rhumerus -37.9651 -15.5126 -72.4453
rradius 28.7275
rwrist 5.11525
rhand -19.4575 8.09149
rfingers 7.12502
rthumb 6.86356 -21.7773
lclavicle 9.14409e-015 -1.59028e-015
lhumerus -31.8093 8.38175 79.6682
lradius 36.5698
lwrist -1.03051
lhand -20.702 24.0433
lfingers 7.12502
lthumb 5.66208 53.9476
rfemur -7.10251 -16.1663 21.2271
rtibia 37.0625
rfoot -19.4916 -23.8949
rtoes -10.3577
lfemur -9.0327 11.6431 -19.7283
ltibia 32.342
lfoot -17.6571 16.6053
ltoes -8.23847
